 <svg xmlns="http://www.w3.org/2000/svg" viewBox="0 0 374 386" fill="none">
            <path d="M202.474 108.776L247.408 122.276L327.058 273.776H230.615L177.058 214.776L202.474 108.776Z" fill="#DEDEDE" />
            <path d="M25.0576 197.776L59.0576 163.776L110.058 214.776L94.5576 273.776H25.0576V197.776Z" fill="#DEDEDE" />
            <path d="M260.226 52.7761L296.251 15.8071L359.443 75.1206L359.947 114.117L317.507 157.67L260.226 52.7761Z" fill="white" />
            <path d="M102.967 127.186L158.058 63.776L251.058 41.6859L327.558 181.776L327.558 273.776L251.058 273.776L177.013 84.4359L214.035 179.106L135.374 217.106L145.558 273.776L68.5578 273.776L30.5577 195.276L43.5576 153.776L102.967 127.186Z" fill="white" />
            <path d="M103.058 127.276L158.058 63.776L214.058 179.276L135.058 216.776L103.058 127.276Z" fill="#EDEDED" />
            <path d="M337.606 77.0335L351.909 85.5L351.909 87.0778L336.053 82.8291L337.606 77.0335Z" fill="#181818" />
          </svg>